<?xml version="1.0" standalone="no"?>
<!DOCTYPE svg PUBLIC "-//W3C//DTD SVG 20010904//EN"
 "http://www.w3.org/TR/2001/REC-SVG-20010904/DTD/svg10.dtd">
<svg version="1.0" xmlns="http://www.w3.org/2000/svg"
 width="341.000000pt" height="341.000000pt" viewBox="0 0 341.000000 341.000000"
 preserveAspectRatio="xMidYMid meet">
<metadata>
Created by potrace 1.14, written by Peter Selinger 2001-2017
</metadata>
<g transform="translate(0.000000,341.000000) scale(0.100000,-0.100000)"
fill="#000000" stroke="none">
<path d="M1599 3226 c-2 -2 -32 -6 -65 -9 -141 -13 -323 -70 -479 -148 -252
-126 -475 -337 -618 -584 -75 -129 -156 -346 -172 -460 -3 -22 -9 -65 -14 -95
-11 -69 -11 -309 -1 -375 5 -28 11 -67 15 -87 3 -20 17 -74 29 -120 113 -404
389 -738 766 -928 71 -36 203 -87 244 -96 10 -2 33 -8 50 -14 17 -5 49 -12 71
-16 22 -3 43 -8 46 -10 13 -7 175 -18 269 -18 89 1 195 9 230 19 8 2 31 7 50
10 19 3 43 8 52 11 9 3 25 6 35 9 92 18 297 108 410 181 262 167 469 419 582
705 74 189 104 348 104 549 0 63 -3 131 -6 150 -3 19 -9 58 -12 85 -28 220
-141 476 -300 680 -214 275 -578 493 -900 540 -22 3 -47 8 -55 12 -16 6 -325
14 -331 9z m246 -141 c155 -12 339 -64 467 -132 76 -40 186 -141 236 -218 59
-89 72 -185 37 -269 -19 -46 -96 -145 -142 -183 -21 -17 -51 -43 -68 -57 -44
-39 -205 -145 -325 -214 -58 -33 -253 -144 -435 -248 -181 -103 -370 -212
-420 -242 -327 -201 -495 -403 -495 -594 0 -45 -2 -49 -16 -37 -8 7 -44 56
-79 109 -245 367 -295 813 -140 1227 64 170 163 320 305 464 229 231 522 370
832 395 40 3 74 7 75 8 3 2 70 -1 168 -9z m986 -578 c102 -147 192 -368 214
-522 3 -22 8 -51 11 -65 10 -45 12 -243 3 -324 -10 -90 -55 -276 -75 -315 -8
-14 -14 -30 -14 -34 0 -19 -96 -197 -143 -267 -71 -104 -243 -273 -352 -346
-314 -210 -647 -273 -1051 -200 -56 10 -207 63 -277 97 -79 37 -198 143 -250
222 -35 53 -65 136 -62 172 5 59 19 98 54 151 78 119 173 198 446 370 17 10
39 24 50 30 76 41 352 198 360 204 6 4 36 22 68 39 179 99 420 239 500 292
289 191 425 365 429 547 l2 65 23 -29 c14 -16 42 -55 64 -87z"/>
</g>
</svg>
